<svg width="596.7" height="810" version="1.1" viewBox="0 0 596.7 810" xml:space="preserve"
     xmlns="http://www.w3.org/2000/svg"><title>Medicine doctor - man, with stethoscope, talking</title>
    <g>



    <path d="m587.9 801.15s-6.3855-115.81-10.188-159.48c-4.869-55.969-17.721-61.563-36.675-74.47-32.405-22.059-110.77-44.58-110.77-44.58h-129.33s-71.277 11.758-103.68 33.82l-52.751 47.113-16.65-80.965-36.738 2.4497-29.943 19.993-11.54 11.41s23.251 132.99 28.988 142.57c6.548 10.94 12.241 23.702 32.46 22.161 25.377-1.9314 96.796-46.933 96.796-46.933l12.391 126.91h367.63"
          fill="#fff"/>
        <path d="m379.48 744.27c-68.641-3.7045-133.47-18.04-172-45.998 1.068 0.34716 15.056 102.88 15.056 102.88h364.24s-3.7858-82.307-6.9596-123.59c-43.922 39.266-116.53 71.225-200.34 66.708"
              fill="#e0e6e8"/>
        <path d="m396.3 485.06s-0.31738 20.814 6.5225 29.45l-36.082 42.382-38.346-42.382c6.8377-8.6358 6.5203-29.45 6.5203-29.45h61.385"
              fill="#fcd0b4"/>
        <path d="m337.98 491.76h56.54l3.7024 17.253s-30.317 24.304-71.117 15.349l10.874-32.602" fill="#e59686"/>
        <path d="m307.39 565.34 57.862-12.954 34.432 7.2184 24.499 5.7356-57.217 184.27-59.576-184.27" fill="#fff"/>
        <path d="m346.54 677.74 11.552-80.857-19.179-39.184 27.598-5.312 26.111 5.312-19.172 39.184 14.047 83.906-20.987 60.589-19.972-63.638"
              fill="#5784cc"/></g>
    <g fill="none" stroke-linecap="round" stroke-linejoin="round" stroke-miterlimit="10"><path d="m346.2 678.75 11.89-81.875-19.179-39.184 27.598-5.312 26.111 5.312-19.172 39.184 13.032 81.198" stroke="#24487a" stroke-width="4.062"/>
        <path d="m358.09 596.88s6.0291-6.2327 15.359 0" stroke="#24487a" stroke-width="4.062"/>
        <g stroke="#656263"><path d="m447.95 528.05 43.152 31.912-38.811 14.293 35.979 31.038-134.85 184.15" stroke-width="6.4992"/>
            <path d="m281.7 526.34-42.185 33.615 38.811 14.293-35.976 31.038 118.3 152.56" stroke-width="6.4992"/>
            <path d="m545.43 661.17s-14.583 37.26-27.218 56.217" stroke-width="5.416"/>
            <path d="m440.79 670.13h59.563v99.794h-85.106v-64.91" stroke-width="5.416"/></g>
        <path d="m334.91 485.06s0.31738 20.814-6.5203 29.45" stroke="#231f20" stroke-width="7.5824"/>
        <path d="m312.58 518.53s-82.622 18.744-113.16 38.363c-14.333 9.2137-54.911 50.775-54.911 50.775"
              stroke="#231f20" stroke-width="7.5824"/></g>
    <path d="m365.25 554.52c-29.432-27.924-37.563-50.434-33.59-61.717 0 0-10.494 6.093-17.941 23.13-15.487 35.424 1.5062 66.581 3.1456 76.26 0 0 31.381-38.395 48.384-37.673"
          fill="#fff"/>
    <g fill="none" stroke="#231f20" stroke-linecap="round" stroke-linejoin="round" stroke-miterlimit="10"><path d="m365.25 554.52c-29.432-27.924-37.563-50.434-33.59-61.717 0 0-10.494 6.093-17.941 23.13-15.487 35.424 1.5062 66.581 3.1456 76.26 0 0 31.381-38.395 48.384-37.673z" stroke-width="5.416"/>
        <path d="m331.66 492.8s-10.494 6.093-17.941 23.13c-15.487 35.424 1.5062 66.581 3.1456 76.26l49.643 149.18"
              stroke-width="6.4992"/>
        <g stroke-width="7.5824"><path d="m418.64 518.53s89.999 26.615 122.4 48.674c18.954 12.907 31.806 18.501 36.675 74.47 3.802 43.669 10.188 159.48 10.188 159.48"/>
            <path d="m203.35 635.36c1.354 6.3194 16.925 165.8 16.925 165.8"/>
            <path d="m527.87 635.36c-1.354 6.3194-19.866 165.8-19.866 165.8"/></g></g>
    <path d="m365.97 554.52c29.433-27.924 37.563-50.434 33.592-61.717 0 0 10.494 6.093 17.941 23.13 15.487 35.424-1.5084 66.581-3.1483 76.26 0 0-31.379-38.395-48.384-37.673"
          fill="#fff"/>
    <path d="m365.97 554.52c29.433-27.924 37.563-50.434 33.592-61.717 0 0 10.494 6.093 17.941 23.13 15.487 35.424-1.5084 66.581-3.1483 76.26 0 0-31.379-38.395-48.384-37.673z"
          fill="none" stroke="#231f20" stroke-linecap="round" stroke-linejoin="round" stroke-miterlimit="10"
          stroke-width="5.416"/>
    <path d="m399.56 492.8s10.494 6.093 17.941 23.13c15.487 35.424 0.36395 64.778-3.1483 76.26l-63.342 201.37"
          fill="none" stroke="#231f20" stroke-linecap="round" stroke-linejoin="round" stroke-miterlimit="10"
          stroke-width="6.4992"/>
    <path d="m385.09 786.25c0 4.0408-3.2794 7.3116-7.3138 7.3116-4.0366 0-7.3159-3.2708-7.3159-7.3116 0-4.0409 3.2794-7.3116 7.3159-7.3116 4.0344 0 7.3138 3.2707 7.3138 7.3116"
          fill="#e0e6e8"/>
    <g fill="none" stroke="#231f20" stroke-miterlimit="10"><path d="m385.09 786.25c0 4.0408-3.2794 7.3116-7.3138 7.3116-4.0366 0-7.3159-3.2708-7.3159-7.3116 0-4.0409 3.2794-7.3116 7.3159-7.3116 4.0344 0 7.3138 3.2707 7.3138 7.3116z" stroke-width="5.416"/>
        <path d="m117.62 522.59c11.964-4.0198 12.962 4.094 12.962 4.094s20.048 121.27 19.728 119.8"
              stroke-linecap="round" stroke-linejoin="round" stroke-width="7.5824"/>
        <path d="m66.759 541.89s-19.559 9.146-18.198 20.429c-0.14807 1.1531 23.435 118.57 28.519 132.78 9.8653 27.577 27.397 29.098 43.487 24.112 34.563-10.72 86.927-44.087 86.927-44.087"
              stroke-linecap="round" stroke-linejoin="round" stroke-width="7.5824"/></g>
    <path d="m67.449 568.34-4.2548-41.488s-31.542-10.705-37.69-52.711c0 0-15.962-22.87-16.675-32.183-0.79971-10.335 11.323-19.115 21.759-16.005 0 0 6.5627-19.512 24.429-17.115 0 0 8.7124-15.99 26.234-9.5901 0 0-3.4949-56.174-3.3005-74.22 0.19714-18.047 20.903-17.634 23.399-3.7089 1.8431 10.277 18.127 117.64 18.127 117.64l0.1966 1.6817c9.6833 5.6446 13.72 11.875 10.904 29.361-2.7714 17.141-15.305 38.308-15.305 38.308l2.708 39.061-26.857 15.099-23.674 5.871"
          fill="#fcd0b4"/>
    <path d="m29.04 477.39s8.636 8.6001 16.394 5.9089c7.7538-2.6934 10.083-10.362 10.083-10.362s8.7271 1.5826 13.548-2.0202c4.8235-3.6071 11.621-12.741 11.621-12.741l8.2973 6.7321s-18.046 19.379-18.308 28.387c0 0-33.306 0.35963-37.394 1.1785-4.0959 0.83135-4.2419-17.084-4.2419-17.084"
          fill="#da907b"/>
    <g fill="none" stroke="#231f20" stroke-linecap="round" stroke-linejoin="round" stroke-miterlimit="10"><path d="m67.449 568.34-4.2548-41.488s-31.542-10.705-37.69-52.711c0 0-15.962-22.87-16.675-32.183-0.79971-10.335 11.323-19.115 21.759-16.005 0 0 6.5627-19.512 24.429-17.115 0 0 8.7124-15.99 26.234-9.5901 0 0-3.4949-56.174-3.3005-74.22 0.19714-18.047 20.903-17.634 23.399-3.7089 1.8431 10.277 18.127 117.64 18.127 117.64l0.1966 1.6817c9.6833 5.6446 13.72 11.875 10.904 29.361-2.7714 17.141-15.305 38.308-15.305 38.308l2.708 39.061" stroke-width="7.5824"/>
        <g stroke-width="6.4992"><path d="m119.67 440.64c-18.814-10.959-47.263-14.703-50.185-3.9136-2.9171 10.79 16.164 26.462 28.212 30.154"/>
            <path d="m88.916 464.13s-24.283 22.04-18.304 42.281"/>
            <path d="m81.251 399.25 9.2451 30.444"/>
            <path d="m55.035 408.63 14.107 28.174"/>
            <path d="m25.189 473.9s9.2221 8.879 15.465 9.5668c8.6318 0.95214 14.799-3.4316 14.831-11.679 0 0 14.492 5.2427 23.911-11.132"/>
            <path d="m30.589 425.96s14.242 37.345 26.483 45.511"/></g>
        <path d="m48.561 562.32s3.7298 7.447 23.028 5.6148c24.08-2.285 57.33-23.646 58.988-36.558"
              stroke-width="7.5824"/></g>
    <path d="m286.26 762.49c1.185 4.4407-2.4329 9.3045-8.1029 10.864-5.6592 1.5486-11.213-0.80184-12.404-5.2489-1.1888-4.4344 2.4394-9.2939 8.0986-10.843 5.6592-1.5487 11.217 0.80184 12.408 5.2277"
          fill="#403c3d"/>
    <path d="m286.26 762.49c1.185 4.4407-2.4329 9.3045-8.1029 10.864-5.6592 1.5486-11.213-0.80184-12.404-5.2489-1.1888-4.4344 2.4394-9.2939 8.0986-10.843 5.6592-1.5487 11.217 0.80184 12.408 5.2277z"
          fill="none" stroke="#231f20" stroke-miterlimit="10" stroke-width="4.062"/>
    <path d="m307.57 756.78c1.191 4.447 6.7446 6.7742 12.404 5.2256 5.6592-1.5528 9.2874-6.3955 8.0921-10.843-1.185-4.4342-6.7381-6.7847-12.402-5.2255-5.6548 1.5419-9.283 6.406-8.0942 10.842"
          fill="#403c3d"/>
    <path d="m307.57 756.78c1.191 4.447 6.7446 6.7742 12.404 5.2256 5.6592-1.5528 9.2874-6.3955 8.0921-10.843-1.185-4.4342-6.7381-6.7847-12.402-5.2255-5.6548 1.5419-9.283 6.406-8.0942 10.842z"
          fill="none" stroke="#231f20" stroke-miterlimit="10" stroke-width="4.062"/>
    <path d="m482.39 619.32c-6.2057-86.502-62.481-153.21-125.46-148.69-57.122 4.0896-100.4 65.416-103.32 141.34-29.822 10.934-44.957 51.641-33.808 93.274 2.9301 10.908 19.827 54.994 37.852 65.339 2.9728 1.6946 5.9094 2.5007 8.7761 2.4034 1.0577-0.0317 2.0987-0.19465 3.1353-0.48023l-2.8564-10.443c-0.96242 0.24962-2.1897-0.0275-3.6601-0.88221-13.205-7.5824-29.534-46.622-32.788-58.749-10.058-37.559 3.3281-74.026 29.837-81.289 9.9221-2.7188 20.617-1.0242 30.93 4.8977 16.217 9.2917 29.418 27.99 35.31 50.005 5.4371 20.272 8.1451 67.436-1.7348 70.148l2.8559 10.447c25.933-7.1105 9.5414-82.647 9.3404-83.406-6.6216-24.734-21.717-45.89-40.381-56.597-10.443-5.9831-21.322-8.4203-31.868-7.2672 3.6704-68.925 42.319-124.03 93.172-127.68 57.016-4.0891 108.1 58.004 113.86 138.41 3.8567 53.824-13.582 104.63-45.518 132.57l7.056 8.4498c34.495-30.194 53.373-84.532 49.269-141.8"
          fill="#7b7979"/>
    <path d="m482.39 619.32c-6.2057-86.502-62.481-153.21-125.46-148.69-57.122 4.0896-100.4 65.416-103.32 141.34-29.822 10.934-44.957 51.641-33.808 93.274 2.9301 10.908 19.827 54.994 37.852 65.339 2.9728 1.6946 5.9094 2.5007 8.7761 2.4034 1.0577-0.0317 2.0987-0.19465 3.1353-0.48023l-2.8564-10.443c-0.96242 0.24962-2.1897-0.0275-3.6601-0.88221-13.205-7.5824-29.534-46.622-32.788-58.749-10.058-37.559 3.3281-74.026 29.837-81.289 9.9221-2.7188 20.617-1.0242 30.93 4.8977 16.217 9.2917 29.418 27.99 35.31 50.005 5.4371 20.272 8.1451 67.436-1.7348 70.148l2.8559 10.447c25.933-7.1105 9.5414-82.647 9.3404-83.406-6.6216-24.734-21.717-45.89-40.381-56.597-10.443-5.9831-21.322-8.4203-31.868-7.2672 3.6704-68.925 42.319-124.03 93.172-127.68 57.016-4.0891 108.1 58.004 113.86 138.41 3.8567 53.824-13.582 104.63-45.518 132.57l7.056 8.4498c34.495-30.194 53.373-84.532 49.269-141.8z"
          fill="none" stroke="#231f20" stroke-linecap="round" stroke-linejoin="round" stroke-miterlimit="10"
          stroke-width="4.062"/>
    <path d="m469.97 744.31c0.63475 18.268-13.661 33.59-31.925 34.218-18.275 0.63471-33.585-13.665-34.22-31.931-0.62447-18.269 13.667-33.579 31.935-34.208 18.268-0.63476 33.585 13.652 34.21 31.92"
          fill="#a7a5a6"/>
    <path d="m469.97 744.31c0.63475 18.268-13.661 33.59-31.925 34.218-18.275 0.63471-33.585-13.665-34.22-31.931-0.62447-18.269 13.667-33.579 31.935-34.208 18.268-0.63476 33.585 13.652 34.21 31.92z"
          fill="none" stroke="#231f20" stroke-miterlimit="10" stroke-width="5.416"/>
    <path d="m459.32 744.68c0.42299 12.381-9.2668 22.77-21.643 23.191-12.387 0.42732-22.765-9.2665-23.194-21.643-0.42786-12.38 9.2619-22.762 21.649-23.185 12.377-0.42787 22.76 9.2619 23.188 21.636"
          fill="#7b7979"/>
    <path d="m459.32 744.68c0.42299 12.381-9.2668 22.77-21.643 23.191-12.387 0.42732-22.765-9.2665-23.194-21.643-0.42786-12.38 9.2619-22.762 21.649-23.185 12.377-0.42787 22.76 9.2619 23.188 21.636z"
          fill="none" stroke="#231f20" stroke-miterlimit="10" stroke-width="2.708"/>
    <g><path d="m186.85 266.26s-33.537-131.52 39.001-183.27c0 0 11.234-24.372 62.365-53.299 65.686-37.154 156.58-21.897 170.51 23.218 0 0 38.659 6.3096 64.357 43.128 24.55 35.161 35.16 69.644 23.003 169.17l0.17332 46.089-351.15 26.526-8.2572-71.561" fill="#291d16"/>
        <path d="m225.85 99.105s11.234-24.372 62.365-53.294c65.686-37.159 156.58-21.897 170.51 23.218 0 0 38.659 6.3096 64.357 43.128 16.65 23.841 26.873 47.401 27.946 91.108 1.2294-54.35-9.3599-80.606-27.946-107.23-25.698-36.818-64.357-43.128-64.357-43.128-13.932-45.115-104.82-60.372-170.51-23.218-51.131 28.927-62.365 53.299-62.365 53.299-40.332 28.775-47.853 82.204-46.601 123.98 1.1466-38.611 11.302-82.675 46.601-107.87"
              fill="#806a5d"/>
        <path d="m546.09 281.32 0.10995 29.979 0.0634-6e-3 -0.11645-30.48c-0.0211 0.16898-0.0357 0.3385-0.0569 0.50748"
              fill="#644a3f"/>
        <path d="m525.45 283.13s32.687-26.208 44.965 14.89c14.103 47.215-33.171 98.688-54.623 102.71" fill="#fcd0b4"/></g>
    <path d="m525.45 283.13s32.687-26.208 44.965 14.89c14.103 47.215-33.171 98.688-54.623 102.71" fill="none"
          stroke="#231f20" stroke-linecap="round" stroke-linejoin="round" stroke-miterlimit="10" stroke-width="7.5824"/>
    <path d="m546.97 343.73c-6.7213 15.292-19.455 24.467-28.449 20.517-8.9954-3.9521-10.836-19.555-4.1086-34.844 6.7278-15.281 19.464-24.463 28.455-20.507 8.9933 3.9521 10.824 19.554 4.1026 34.834"
          fill="#e59686"/>
    <path d="m556.26 297.4s-17.358-7.6333-30.802 21.996" fill="none" stroke="#231f20" stroke-linecap="round"
          stroke-linejoin="round" stroke-miterlimit="10" stroke-width="7.5824"/>
    <path d="m205.8 283.13s-32.689-26.208-44.967 14.89c-14.103 47.215 33.173 98.688 54.625 102.71" fill="#fcd0b4"/>
    <path d="m205.8 283.13s-32.689-26.208-44.967 14.89c-14.103 47.215 33.173 98.688 54.625 102.71" fill="none"
          stroke="#231f20" stroke-linecap="round" stroke-linejoin="round" stroke-miterlimit="10" stroke-width="7.5824"/>
    <path d="m178.83 342.84c6.7213 15.279 19.46 24.467 28.449 20.515 8.9938-3.9564 10.832-19.549 4.1048-34.838-6.7175-15.281-19.462-24.467-28.449-20.507-8.9911 3.9515-10.821 19.538-4.1042 34.829"
          fill="#e59686"/>
    <path d="m174.99 297.4s17.365-7.6333 30.81 21.996" fill="none" stroke="#231f20" stroke-linecap="round"
          stroke-linejoin="round" stroke-miterlimit="10" stroke-width="7.5824"/>
    <path d="m497.96 131.91c40.55 108.67 34.975 254.07-6.2734 309.23-31.846 42.581-74.751 66.985-126.06 66.985-51.31 0-94.215-24.403-126.06-66.985-43.29-57.88-46.889-218.09 0.44465-326.27l0.89906-1.1482c40.271-27.86 101.71-29.701 101.71-29.701s-38.208 18.517-32.697 24.567c5.7226 6.2826 42.334 9.4022 76.046-0.23289 48.655-13.903 60.814-33.78 60.814-33.78s3.0828 41.026 52.743 58.016"
          fill="#fcd0b4"/>
    <path d="m497.96 131.91c40.55 108.67 34.975 254.07-6.2734 309.23-31.846 42.581-74.751 66.985-126.06 66.985-51.31 0-94.215-24.403-126.06-66.985-43.29-57.88-46.889-218.09 0.44465-326.27l0.89906-1.1482c40.271-27.86 101.71-29.701 101.71-29.701s-38.208 18.517-32.697 24.567c5.7226 6.2826 42.334 9.4022 76.046-0.23289 48.655-13.903 60.814-33.78 60.814-33.78s3.0828 41.026 52.743 58.016"
          fill="none" stroke="#231f20" stroke-linecap="round" stroke-linejoin="round" stroke-miterlimit="10"
          stroke-width="7.5824"/>
    <path d="m206.62 274.83h34.707" fill="none" stroke="#231f20" stroke-linecap="round" stroke-linejoin="round"
          stroke-miterlimit="10" stroke-width="7.5824"/>
    <g><path d="m268.85 311.29c0 7.8283-12.503 14.175-27.93 14.175-15.425 0-27.95-6.3465-27.95-14.175 0-7.8278 12.525-14.16 27.95-14.16 15.427 0 27.93 6.3318 27.93 14.16" fill="#f6807f"/>
        <path d="m513.89 311.29c0 7.8283-12.507 14.175-27.937 14.175-15.423 0-27.941-6.3465-27.941-14.175 0-7.8278 12.518-14.16 27.941-14.16 15.43 0 27.937 6.3318 27.937 14.16"
              fill="#f6807f"/>
        <path d="m321.06 271.61c0 19.823-12.662 35.885-28.275 35.885-15.613 0-28.265-16.062-28.265-35.885 0-19.824 12.651-35.893 28.265-35.893 15.613 0 28.275 16.069 28.275 35.893"
              fill="#fff"/>
        <path d="m315.03 273.43c0 10.667-6.594 19.337-14.735 19.337-8.1408 0-14.746-8.67-14.746-19.337 0-10.681 6.6048-19.325 14.746-19.325 8.1413 0 14.735 8.644 14.735 19.325"
              fill="#231f20"/>
        <path d="m263.92 264.91s3.0043-21.896 23.458-27.983c23.932-7.1166 30.068 17.039 30.068 17.039s-12.461-9.2668-27.313-5.481c-13.995 3.5692-26.213 16.426-26.213 16.426"
              fill="#deedfa"/></g>
    <path d="m317.45 253.97s-6.1358-24.155-30.068-17.039c-20.454 6.0876-23.458 27.983-23.458 27.983" fill="none"
          stroke="#231f20" stroke-linecap="round" stroke-linejoin="round" stroke-miterlimit="10" stroke-width="7.5824"/>
    <g><path d="m315.37 263.14c0 2.5163-2.0229 4.5576-4.5126 4.5576-2.4903 0-4.5126-2.0413-4.5126-4.5576 0-2.513 2.0223-4.5549 4.5126-4.5549 2.4897 0 4.5126 2.0418 4.5126 4.5549" fill="#fff"/>
        <path d="m410.2 271.61c0 19.823 12.651 35.885 28.265 35.885 15.62 0 28.269-16.062 28.269-35.885 0-19.824-12.649-35.893-28.269-35.893-15.613 0-28.265 16.069-28.265 35.893"
              fill="#fff"/>
        <path d="m416.21 273.43c0 10.667 6.6005 19.337 14.735 19.337 8.1451 0 14.746-8.67 14.746-19.337 0-10.681-6.6005-19.325-14.746-19.325-8.1348 0-14.735 8.644-14.735 19.325"
              fill="#231f20"/>
        <path d="m467.33 264.91s-3.0108-21.896-23.458-27.983c-23.938-7.1166-30.073 17.039-30.073 17.039s12.461-9.2668 27.312-5.481c14.001 3.5692 26.219 16.426 26.219 16.426"
              fill="#deedfa"/></g>
    <path d="m413.8 253.97s6.1352-24.155 30.073-17.039c20.448 6.0876 23.458 27.983 23.458 27.983" fill="none"
          stroke="#231f20" stroke-linecap="round" stroke-linejoin="round" stroke-miterlimit="10" stroke-width="7.5824"/>
    <path d="m435.46 263.14c0 2.5163 2.0207 4.5576 4.517 4.5576 2.486 0 4.5061-2.0413 4.5061-4.5576 0-2.513-2.0202-4.5549-4.5061-4.5549-2.4962 0-4.517 2.0418-4.517 4.5549"
          fill="#fff"/>
    <path d="m349.84 271.56s17.37-4.902 30.292 1.868" fill="none" stroke="#231f20" stroke-linecap="round"
          stroke-linejoin="round" stroke-miterlimit="10" stroke-width="7.5824"/>
    <path d="m185.97 271.64s-32.659-136.89 39.88-188.64c0 0 11.234-24.372 62.365-53.299 65.686-37.154 156.58-21.897 170.51 23.218 0 0 38.659 6.3096 64.357 43.128 24.55 35.161 35.16 79.085 23.003 178.6"
          fill="none" stroke="#231f20" stroke-linecap="round" stroke-linejoin="round" stroke-miterlimit="10"
          stroke-width="7.5824"/>
    <path d="m338.11 198.14c-2.3273-5.4214-7.6203-11.709-14.767-16.551-7.0977-4.9069-16.047-8.4219-24.763-9.5755-8.7165-1.2348-16.999 5e-3 -22.468 1.8469-11.174 3.5962-18.966 11.265-22.753 17.31-3.8822 6.1526-4.4958 10.74-2.9517 11.742 3.4023 2.2964 13.699-10.626 30.006-15.847 4.0452-1.3594 10.053-2.643 16.95-2.318 6.8691 0.2708 14.502 2.1935 21.04 5.3131 6.5691 3.0709 11.928 7.2791 15.117 10.924 2.3906 2.838 5.7014 1.3378 4.5906-2.8434"
          fill="#291d16"/>
    <path d="m338.11 198.14c-2.3273-5.4214-7.6203-11.709-14.767-16.551-7.0977-4.9069-16.047-8.4219-24.763-9.5755-8.7165-1.2348-16.999 5e-3 -22.468 1.8469-11.174 3.5962-18.966 11.265-22.753 17.31-3.8822 6.1526-4.4958 10.74-2.9517 11.742 3.4023 2.2964 13.699-10.626 30.006-15.847 4.0452-1.3594 10.053-2.643 16.95-2.318 6.8691 0.2708 14.502 2.1935 21.04 5.3131 6.5691 3.0709 11.928 7.2791 15.117 10.924 2.3906 2.838 5.7014 1.3378 4.5906-2.8434z"
          fill="none" stroke="#291d16" stroke-miterlimit="10" stroke-width="4.062"/>
    <path d="m393.15 198.14c2.3273-5.4214 7.6203-11.709 14.761-16.551 7.0977-4.9069 16.047-8.4219 24.763-9.5755 8.723-1.2348 16.999 5e-3 22.475 1.8469 11.174 3.5962 18.96 11.265 22.747 17.31 3.886 6.1526 4.4953 10.74 2.9512 11.742-3.3958 2.2964-13.699-10.626-30-15.847-4.0512-1.3594-10.053-2.643-16.953-2.318-6.8691 0.2708-14.496 2.1935-21.037 5.3131-6.5756 3.0709-11.928 7.2791-15.118 10.924-2.395 2.838-5.7063 1.3378-4.589-2.8434"
          fill="#291d16"/>
    <g fill="none" stroke-miterlimit="10"><path d="m393.15 198.14c2.3273-5.4214 7.6203-11.709 14.761-16.551 7.0977-4.9069 16.047-8.4219 24.763-9.5755 8.723-1.2348 16.999 5e-3 22.475 1.8469 11.174 3.5962 18.96 11.265 22.747 17.31 3.886 6.1526 4.4953 10.74 2.9512 11.742-3.3958 2.2964-13.699-10.626-30-15.847-4.0512-1.3594-10.053-2.643-16.953-2.318-6.8691 0.2708-14.496 2.1935-21.037 5.3131-6.5756 3.0709-11.928 7.2791-15.118 10.924-2.395 2.838-5.7063 1.3378-4.589-2.8434z" stroke="#291d16" stroke-width="4.062"/>
        <g stroke="#231f20" stroke-linecap="round" stroke-linejoin="round"><path d="m356.18 295.79s4.03 15.281 1.3432 31.015" stroke-width="7.5824"/>
            <path d="m364.51 318.11s-16.227 20.285-16.635 27.584c-0.40621 7.2992 13.335 19.468 13.335 19.468"
                  stroke-width="7.5824"/>
            <path d="m350.25 275.17c0 30.08-24.383 54.456-54.467 54.456-30.074 0-54.461-24.376-54.461-54.456 0-30.082 24.387-54.464 54.461-54.464 30.084 0 54.467 24.383 54.467 54.464z"
                  stroke-width="8.6656"/>
            <path d="m524.64 274.83h-34.707" stroke-width="7.5824"/>
            <path d="m381.01 275.17c0 30.08 24.382 54.456 54.456 54.456 30.084 0 54.467-24.376 54.467-54.456 0-30.082-24.382-54.464-54.467-54.464-30.074 0-54.456 24.383-54.456 54.464z"
                  stroke-width="8.6656"/></g></g>
    <path d="m363.62 393.29c40.18 0 60.865-7.9529 60.865-7.9529 0.35096 18.882-5.2871 94.065-58.851 94.065-53.561 0-59.206-75.183-58.852-94.065 0 0 16.673 7.9529 56.839 7.9529"
          fill="#eb4b7c"/>
    <path d="m366.32 406.49c20.614 0 39.562 6.6324 54.816 16.434 2.8813-14.192 3.4527-31.199 3.3406-37.584 0 0-20.685 7.9529-60.865 7.9529-40.166 0-56.839-7.9529-56.839-7.9529-0.12457 6.5144 0.47173 23.865 3.5014 38.371 14.64-10.984 34.879-17.221 56.045-17.221"
          fill="#c2434f"/>
    <path d="m363.62 393.29c40.18 0 60.865-7.9529 60.865-7.9529 0.35096 18.882-5.2871 94.065-58.851 94.065-53.561 0-59.206-75.183-58.852-94.065 0 0 16.673 7.9529 56.839 7.9529z"
          fill="none" stroke="#231f20" stroke-linecap="round" stroke-linejoin="round" stroke-miterlimit="10"
          stroke-width="6.4992"/></svg>
