<svg width="500" height="500" version="1.1" xmlns="http://www.w3.org/2000/svg">
 <g transform="translate(-125 -238.4)">
  <path d="m560.59 738.4c35.681 1e-5 64.406-28.725 64.406-64.406v-371.19c0-35.681-28.725-64.406-64.406-64.406h-371.19c-35.681 0-64.406 28.725-64.406 64.406v371.19c0 35.681 28.725 64.405 64.406 64.405 132.15-1.0428 248.8-8e-5 371.19 1e-4z"
        fill="#62b0df"/>
  <path d="m464.09 310.68c-9.4054-4e-3 -18.933 1.0007-27 2.9688-23.453 5.7217-43.685 19.073-55.875 36.875-2.8031 4.0937-5.554 7.4375-6.125 7.4375s-3.2344-3.3262-5.9062-7.375c-16.486-24.983-47.794-39.986-83.094-39.812-18.719 0.0918-31.502 3.1483-48.562 11.594-22.253 11.016-38.792 27.915-49.875 50.969-7.7973 16.219-10.485 26.547-11.531 44.156-1.7778 29.93 6.9579 61.319 25.312 92.938h53.312c1.9365 5e-3 3.6723 1.1955 4.375 3l3.9062 10.031 3.1875-9.2188c0.65911-1.8875 2.4383-3.1529 4.4375-3.1562h13.438l13.188-49.25c1.2504-4.6468 7.8434-4.6468 9.0938 0l12.594 46.969h13.344c2.3376 2e-3 4.32 1.718 4.6562 4.0312l1.375 9.375 11.938-168.47c0.17171-2.4258 2.1625-4.3218 4.5938-4.375 2.4701-0.0483 4.5575 1.8208 4.7812 4.2812l20.562 229.78 9.5312-68.062c0.32217-2.3257 2.3084-4.0586 4.6562-4.0625h33.188l25.5-44.219c1.8122-3.1399 6.3441-3.1399 8.1562 0l24.688 42.75h63.25c11.094-19.192 18.868-38.436 23.094-57.531 2.6978-12.189 2.3097-44.623-0.65625-56.219-3.2821-12.832-13.908-34.454-21.688-44.094-14.414-17.86-37.044-32.42-59.625-38.344-7.5258-1.9742-16.813-2.965-26.219-2.9688zm-108.59 102.25-10.875 153.41c-0.46011 5.5505-8.477 5.8454-9.3438 0.34375l-7.0312-48.438h-12.875c-2.1394 5e-3 -4.0134-1.4323-4.5625-3.5l-8.9688-33.5-9.5938 35.781c-0.56097 2.0553-2.4321 3.4778-4.5625 3.4688h-13.656l-6.3125 18.156c-1.4337 4.1493-7.2644 4.2523-8.8438 0.15625l-7.375-18.969h-44.281c30.323 47.391 81.974 95.082 151.94 139.03 8.3465 5.243 15.561 9.5312 16.062 9.5312 1.5493 0 30.423-18.481 47.312-30.281 54.222-37.882 95.06-78.17 120.94-118.88h-60.25c-1.6746-3e-3 -3.2214-0.89568-4.0625-2.3438l-21.969-38.031-22.812 39.5c-0.83867 1.4698-2.4015 2.3765-4.0938 2.375h-31.75l-14.688 104.72c-0.80862 5.4918-8.793 5.3049-9.3438-0.21875zm192.12 99.531c-0.65702 1.1057-1.3208 2.2073-2 3.3125 0.67932-1.1028 1.3429-2.2089 2-3.3125zm-2 3.3125c-0.70495 1.1444-1.3966 2.2914-2.125 3.4375 0.72556-1.1417 1.423-2.2952 2.125-3.4375zm-341.38-0.65625c0.88332 1.4477 1.7954 2.8954 2.7188 4.3438-0.92203-1.4441-1.8308-2.9042-2.7188-4.3438z"
        fill="#fff"/>
 </g>
</svg>
